# xmcd
#
# Track frame offsets: 
#        150
#        32776
#        59194
#        81307
#        103738
#        125685
#        146370
#        167607
#        206242
#        236394
#        259815
#        282215
#
# Disc length: 4193 seconds
#
# Revision: 0
# Processed by: cddbd v1.5.2PL0 Copyright (c) Steve Scherf et al.
# Submitted via: ExactAudioCopy v1.0b3
#
DISCID=b5105f0c
DTITLE=Tam Doan - Nhung Chuyen Tinh Bat Tu
DYEAR=2009
DGENRE=
TTITLE0=hoa tau - Nhung chuyen tinh bat tu
TTITLE1=Nhung chuyen tinh bat tu
TTITLE2=Ai nho chang ai
TTITLE3=Ve que
TTITLE4=Dinh menh
TTITLE5=Chuyen hop tan
TTITLE6=Sao anh no danh quen
TTITLE7=Tinh nghia doi ta chi the thoi
TTITLE8=Cho vua long em (tan co)
TTITLE9=Chuyen tinh nguoi dan ao
TTITLE10=Huu duyen thien ly ngo, Ly ngua o
TTITLE11=hoa tau - Dinh menh
EXTD=
EXTT0=
EXTT1=
EXTT2=
EXTT3=
EXTT4=
EXTT5=
EXTT6=
EXTT7=
EXTT8=
EXTT9=
EXTT10=
EXTT11=
PLAYORDER=
